<svg width="149" height="153" viewBox="0 0 149 153" fill="none" xmlns="http://www.w3.org/2000/svg">
<path d="M36.2705 144.705C36.2705 104.871 63.321 71.4044 92.9596 47.6935C99.7625 42.2511 107.555 38.3928 114.538 33.1554C117.217 31.1465 121.633 28.0473 125.144 27.8522C129.673 27.6006 139.665 25.1443 141.603 21.269" stroke="#6EC05A" stroke-width="10" stroke-linecap="round"/>
<path d="M141.603 21.269C141.603 12.8837 93.3113 9.03816 85.2792 6.82241C66.0184 1.50909 44.4142 8.77032 27.4014 16.3316C25.6918 17.0914 21.5919 22.7811 19.8123 24.5606C16.3942 27.9787 16.3788 32.7566 13.2291 36.0813C6.67081 43.004 5 52.3058 5 61.6829C5 74.6012 9.75008 78.6237 18.5323 88.3817C21.9345 92.162 20.4661 95.4479 26.3956 98.2566C29.6776 99.8112 29.5322 102.411 32.9788 103.56" stroke="#6EC05A" stroke-width="10" stroke-linecap="round"/>
<path d="M131.728 26.2064C131.728 33.4969 135.166 34.5999 138.311 40.1044C140.168 43.3543 143.248 42.8546 143.248 47.602C143.248 52.2042 143.248 56.8064 143.248 61.4086C143.248 69.7925 141.265 76.6496 135.385 82.5299C131.909 86.0056 127.025 96.3679 121.853 96.9765C117.614 97.4752 110.587 107.826 105.395 110.052C99.1402 112.732 93.3071 115.08 86.4678 115.08C72.9265 115.08 59.377 113.435 46.1454 113.435" stroke="#6EC05A" stroke-width="10" stroke-linecap="round"/>
<path d="M57.6661 80.5183C49.2953 77.17 46.9556 68.0112 39.9278 63.1458C35.1309 59.8249 29.5935 57.4144 24.7498 54.1853" stroke="#6EC05A" stroke-width="10" stroke-linecap="round"/>
<path d="M74.1242 50.8937C66.3676 50.8937 62.6762 50.9875 56.7517 47.602C52.304 45.0605 51.3881 37.8798 47.7912 36.0813" stroke="#6EC05A" stroke-width="10" stroke-linecap="round"/>
<path d="M92.2282 44.3104C86.6578 39.3589 83.9991 33.9129 83.9991 26.2064" stroke="#6EC05A" stroke-width="10" stroke-linecap="round"/>
<path d="M103.749 37.7271C104.611 46.3465 110.31 60.7685 120.207 60.7685" stroke="#6EC05A" stroke-width="10" stroke-linecap="round"/>
<path d="M72.4784 65.706C84.065 65.706 84.5435 74.4795 92.2282 82.1641" stroke="#6EC05A" stroke-width="10" stroke-linecap="round"/>
<path d="M64.2493 90.3932V98.6223" stroke="#6EC05A" stroke-width="10" stroke-linecap="round"/>
</svg>
