<svg width="23" height="22" viewBox="0 0 23 22" fill="none" xmlns="http://www.w3.org/2000/svg">
<path d="M10.7178 1.15555C10.3414 1.31101 10.0049 1.64851 9.33099 2.32148C8.65704 2.99649 8.31956 3.33298 8.16513 3.70833C8.06231 3.95653 8.00938 4.22257 8.00938 4.49124C8.00938 4.75991 8.06231 5.02594 8.16513 5.27415C8.31956 5.65052 8.65602 5.98701 9.33099 6.661C10.0039 7.33499 10.3414 7.67249 10.7178 7.82693C11.2187 8.03433 11.7815 8.03433 12.2825 7.82693C12.6588 7.67249 12.9953 7.33601 13.6692 6.661C14.3442 5.98701 14.6796 5.65052 14.8351 5.27415C15.0425 4.77317 15.0425 4.21033 14.8351 3.70935C14.6796 3.33298 14.3442 2.99649 13.6692 2.3225C12.9953 1.64749 12.6588 1.31101 12.2825 1.15555C11.7815 0.94815 11.2187 0.94815 10.7178 1.15555ZM4.20837 7.66431C3.83304 7.81977 3.49556 8.15625 2.82263 8.83024C2.14766 9.50526 1.8112 9.84174 1.65575 10.2171C1.55292 10.4653 1.5 10.7313 1.5 11C1.5 11.2687 1.55292 11.5347 1.65575 11.7829C1.8112 12.1593 2.14868 12.4958 2.82161 13.1698C3.49658 13.8437 3.83304 14.1802 4.20837 14.3357C4.45656 14.4385 4.72258 14.4914 4.99123 14.4914C5.25989 14.4914 5.5259 14.4385 5.7741 14.3357C6.15045 14.1802 6.48691 13.8437 7.16086 13.1698C7.83583 12.4958 8.17127 12.1593 8.32672 11.7829C8.5341 11.2819 8.5341 10.7191 8.32672 10.2181C8.17127 9.84174 7.83583 9.50423 7.16086 8.83024C6.48691 8.15625 6.15045 7.81977 5.7741 7.66431C5.27314 7.45691 4.70932 7.45691 4.20837 7.66431ZM15.8394 8.83024C15.1654 9.50526 14.8289 9.84174 14.6735 10.2171C14.5707 10.4653 14.5177 10.7313 14.5177 11C14.5177 11.2687 14.5707 11.5347 14.6735 11.7829C14.8289 12.1593 15.1654 12.4958 15.8394 13.1698C16.5133 13.8437 16.8508 14.1802 17.2261 14.3357C17.7271 14.5431 18.2899 14.5431 18.7908 14.3357C19.1672 14.1802 19.5047 13.8437 20.1786 13.1698C20.8525 12.4958 21.188 12.1593 21.3445 11.7829C21.5518 11.2819 21.5518 10.7191 21.3445 10.2181C21.188 9.84174 20.8525 9.50423 20.1786 8.83024C19.5036 8.15625 19.1672 7.81977 18.7918 7.66431C18.5436 7.56148 18.2776 7.50855 18.009 7.50855C17.7403 7.50855 17.4743 7.56148 17.2261 7.66431C16.8508 7.81977 16.5133 8.15625 15.8394 8.83024ZM10.7178 14.1731C10.3414 14.3285 10.0049 14.666 9.33099 15.339C8.65704 16.014 8.31956 16.3505 8.16513 16.7269C7.95775 17.2279 7.95775 17.7907 8.16513 18.2917C8.31956 18.668 8.65602 19.0045 9.33099 19.6785C10.0039 20.3525 10.3414 20.69 10.7178 20.8445C11.2187 21.0519 11.7815 21.0519 12.2825 20.8445C12.6588 20.69 12.9953 20.3535 13.6692 19.6785C14.3442 19.0045 14.6796 18.668 14.8351 18.2917C15.0427 17.7905 15.0427 17.228 14.8351 16.7269C14.6796 16.3505 14.3442 16.013 13.6692 15.34C12.9953 14.665 12.6588 14.3285 12.2825 14.1731C11.7815 13.9657 11.2187 13.9657 10.7178 14.1731Z" stroke="#60D394" stroke-width="2" stroke-linecap="round" stroke-linejoin="round"/>
</svg>
